<svg
  width="1206"
  height="771"
  viewBox="0 0 1206 771"
  fill="none"
  xmlns="http://www.w3.org/2000/svg"
>
  <path
    d="M385.25 0H16.75C7.49923 0 0 7.49923 0 16.75V83.75C0 93.0008 7.49923 100.5 16.75 100.5H385.25C394.501 100.5 402 93.0008 402 83.75V16.75C402 7.49923 394.501 0 385.25 0Z"
    fill="black"
  />
  <path
    d="M141.905 50.8263V60.15H138.764V36.3336H147.548C150.155 36.3336 152.194 36.9988 153.666 38.3292C155.149 39.6596 155.891 41.4208 155.891 43.6126C155.891 45.9245 155.165 47.7075 153.715 48.9615C152.276 50.2047 150.209 50.8263 147.516 50.8263H141.905ZM141.905 48.2582H147.548C149.228 48.2582 150.514 47.8656 151.409 47.0804C152.303 46.2844 152.75 45.1393 152.75 43.6454C152.75 42.2277 152.303 41.0936 151.409 40.243C150.514 39.3924 149.288 38.9508 147.728 38.9181H141.905V48.2582ZM167.979 45.1666C167.521 45.0903 167.025 45.0521 166.49 45.0521C164.506 45.0521 163.159 45.8972 162.45 47.5875V60.15H159.424V42.4513H162.368L162.417 44.4959C163.41 42.9147 164.816 42.1241 166.637 42.1241C167.226 42.1241 167.673 42.2005 167.979 42.3531V45.1666ZM169.647 51.1371C169.647 49.4032 169.985 47.8438 170.661 46.4588C171.348 45.0739 172.297 44.0052 173.508 43.2528C174.729 42.5003 176.119 42.1241 177.679 42.1241C180.089 42.1241 182.035 42.9583 183.518 44.6268C185.012 46.2953 185.759 48.5144 185.759 51.2843V51.4969C185.759 53.2199 185.427 54.7684 184.761 56.1424C184.107 57.5055 183.164 58.5688 181.932 59.3321C180.71 60.0955 179.304 60.4771 177.711 60.4771C175.312 60.4771 173.366 59.6429 171.872 57.9745C170.389 56.306 169.647 54.0978 169.647 51.3497V51.1371ZM172.69 51.4969C172.69 53.4598 173.142 55.0356 174.047 56.2242C174.963 57.4129 176.185 58.0072 177.711 58.0072C179.249 58.0072 180.47 57.4074 181.375 56.2079C182.281 54.9974 182.733 53.3071 182.733 51.1371C182.733 49.196 182.27 47.6257 181.343 46.4261C180.427 45.2157 179.205 44.6104 177.679 44.6104C176.185 44.6104 174.98 45.2048 174.064 46.3934C173.148 47.582 172.69 49.2832 172.69 51.4969ZM188.834 51.1534C188.834 48.3945 189.472 46.2026 190.748 44.5777C192.024 42.942 193.714 42.1241 195.819 42.1241C197.978 42.1241 199.663 42.8875 200.874 44.4142L201.021 42.4513H203.785V59.7247C203.785 62.0147 203.104 63.8195 201.74 65.139C200.388 66.4585 198.567 67.1183 196.277 67.1183C195.001 67.1183 193.753 66.8456 192.531 66.3004C191.31 65.7551 190.378 65.0082 189.734 64.0594L191.304 62.2437C192.602 63.8468 194.189 64.6483 196.064 64.6483C197.537 64.6483 198.682 64.2339 199.5 63.4051C200.328 62.5763 200.743 61.4095 200.743 59.9046V58.3834C199.532 59.7792 197.88 60.4771 195.786 60.4771C193.714 60.4771 192.035 59.6429 190.748 57.9745C189.472 56.306 188.834 54.0323 188.834 51.1534ZM191.877 51.4969C191.877 53.4925 192.286 55.0628 193.104 56.2079C193.922 57.342 195.067 57.909 196.539 57.909C198.447 57.909 199.848 57.0421 200.743 55.3082V47.2276C199.816 45.5374 198.425 44.6922 196.572 44.6922C195.099 44.6922 193.949 45.2647 193.12 46.4098C192.291 47.5548 191.877 49.2505 191.877 51.4969ZM216.92 45.1666C216.462 45.0903 215.966 45.0521 215.432 45.0521C213.447 45.0521 212.1 45.8972 211.391 47.5875V60.15H208.365V42.4513H211.31L211.359 44.4959C212.351 42.9147 213.758 42.1241 215.579 42.1241C216.168 42.1241 216.615 42.2005 216.92 42.3531V45.1666ZM229.99 60.15C229.815 59.801 229.673 59.1795 229.564 58.2853C228.158 59.7465 226.478 60.4771 224.526 60.4771C222.782 60.4771 221.348 59.9864 220.224 59.005C219.112 58.0126 218.556 56.7586 218.556 55.2428C218.556 53.3998 219.254 51.9713 220.65 50.9571C222.056 49.9321 224.03 49.4195 226.571 49.4195H229.515V48.0291C229.515 46.9714 229.199 46.1317 228.567 45.5101C227.934 44.8776 227.002 44.5614 225.77 44.5614C224.69 44.5614 223.785 44.834 223.054 45.3792C222.324 45.9245 221.958 46.5842 221.958 47.3585H218.916C218.916 46.4752 219.227 45.6246 219.848 44.8067C220.481 43.978 221.331 43.3237 222.4 42.8438C223.479 42.364 224.663 42.1241 225.949 42.1241C227.989 42.1241 229.586 42.6367 230.742 43.6617C231.898 44.6759 232.498 46.0772 232.542 47.8656V56.0116C232.542 57.6364 232.749 58.9286 233.163 59.8883V60.15H229.99ZM224.968 57.8436C225.917 57.8436 226.816 57.5982 227.667 57.1075C228.518 56.6168 229.134 55.9789 229.515 55.1937V51.5624H227.144C223.436 51.5624 221.582 52.6474 221.582 54.8175C221.582 55.7662 221.898 56.5077 222.531 57.0421C223.163 57.5764 223.976 57.8436 224.968 57.8436ZM240.131 42.4513L240.213 44.4142C241.511 42.8875 243.261 42.1241 245.464 42.1241C247.939 42.1241 249.624 43.0729 250.518 44.9703C251.107 44.1197 251.871 43.4327 252.808 42.9093C253.757 42.3858 254.875 42.1241 256.162 42.1241C260.044 42.1241 262.018 44.1797 262.083 48.2909V60.15H259.057V48.4708C259.057 47.2058 258.768 46.2625 258.19 45.641C257.612 45.0085 256.641 44.6922 255.278 44.6922C254.155 44.6922 253.223 45.0303 252.481 45.7064C251.74 46.3716 251.309 47.2713 251.189 48.4054V60.15H248.146V48.5526C248.146 45.979 246.887 44.6922 244.368 44.6922C242.383 44.6922 241.026 45.5374 240.295 47.2276V60.15H237.269V42.4513H240.131Z"
    fill="white"
  />
  <path
    d="M653.25 168H284.75C275.499 168 268 175.499 268 184.75V251.75C268 261.001 275.499 268.5 284.75 268.5H653.25C662.501 268.5 670 261.001 670 251.75V184.75C670 175.499 662.501 168 653.25 168Z"
    fill="#232323"
  />
  <path
    d="M333.649 223.979L340.453 204.334H343.888L335.055 228.15H332.275L323.458 204.334H326.877L333.649 223.979ZM356.794 228.15C356.62 227.801 356.478 227.179 356.369 226.285C354.962 227.747 353.283 228.477 351.331 228.477C349.586 228.477 348.152 227.986 347.029 227.005C345.917 226.013 345.361 224.759 345.361 223.243C345.361 221.4 346.059 219.971 347.454 218.957C348.861 217.932 350.835 217.42 353.376 217.42H356.32V216.029C356.32 214.971 356.004 214.132 355.371 213.51C354.739 212.878 353.806 212.561 352.574 212.561C351.495 212.561 350.59 212.834 349.859 213.379C349.128 213.924 348.763 214.584 348.763 215.358H345.72C345.72 214.475 346.031 213.625 346.653 212.807C347.285 211.978 348.136 211.324 349.205 210.844C350.284 210.364 351.467 210.124 352.754 210.124C354.793 210.124 356.391 210.637 357.547 211.662C358.703 212.676 359.303 214.077 359.346 215.866V224.012C359.346 225.636 359.553 226.929 359.968 227.888V228.15H356.794ZM351.773 225.844C352.721 225.844 353.621 225.598 354.472 225.108C355.322 224.617 355.938 223.979 356.32 223.194V219.562H353.948C350.241 219.562 348.387 220.647 348.387 222.817C348.387 223.766 348.703 224.508 349.335 225.042C349.968 225.576 350.78 225.844 351.773 225.844ZM372.645 213.167C372.187 213.09 371.691 213.052 371.156 213.052C369.172 213.052 367.825 213.897 367.116 215.587V228.15H364.09V210.451H367.034L367.083 212.496C368.076 210.915 369.482 210.124 371.303 210.124C371.892 210.124 372.339 210.2 372.645 210.353V213.167ZM378.73 228.15H375.704V210.451H378.73V228.15ZM375.458 205.757C375.458 205.266 375.605 204.852 375.9 204.514C376.205 204.175 376.652 204.006 377.241 204.006C377.83 204.006 378.277 204.175 378.583 204.514C378.888 204.852 379.041 205.266 379.041 205.757C379.041 206.247 378.888 206.656 378.583 206.983C378.277 207.311 377.83 207.474 377.241 207.474C376.652 207.474 376.205 207.311 375.9 206.983C375.605 206.656 375.458 206.247 375.458 205.757ZM394.515 228.15C394.34 227.801 394.198 227.179 394.089 226.285C392.683 227.747 391.003 228.477 389.051 228.477C387.306 228.477 385.872 227.986 384.749 227.005C383.637 226.013 383.081 224.759 383.081 223.243C383.081 221.4 383.779 219.971 385.175 218.957C386.581 217.932 388.555 217.42 391.096 217.42H394.04V216.029C394.04 214.971 393.724 214.132 393.092 213.51C392.459 212.878 391.527 212.561 390.294 212.561C389.215 212.561 388.31 212.834 387.579 213.379C386.848 213.924 386.483 214.584 386.483 215.358H383.441C383.441 214.475 383.751 213.625 384.373 212.807C385.006 211.978 385.856 211.324 386.925 210.844C388.004 210.364 389.188 210.124 390.474 210.124C392.514 210.124 394.111 210.637 395.267 211.662C396.423 212.676 397.023 214.077 397.066 215.866V224.012C397.066 225.636 397.274 226.929 397.688 227.888V228.15H394.515ZM389.493 225.844C390.442 225.844 391.341 225.598 392.192 225.108C393.042 224.617 393.659 223.979 394.04 223.194V219.562H391.668C387.961 219.562 386.107 220.647 386.107 222.817C386.107 223.766 386.423 224.508 387.056 225.042C387.688 225.576 388.501 225.844 389.493 225.844ZM416.793 219.497C416.793 222.201 416.172 224.377 414.929 226.024C413.686 227.659 412.017 228.477 409.923 228.477C407.688 228.477 405.959 227.687 404.738 226.105L404.591 228.15H401.81V203.025H404.836V212.398C406.058 210.882 407.742 210.124 409.891 210.124C412.039 210.124 413.724 210.937 414.945 212.561C416.177 214.186 416.793 216.411 416.793 219.235V219.497ZM413.767 219.153C413.767 217.092 413.369 215.5 412.573 214.377C411.777 213.254 410.632 212.692 409.138 212.692C407.143 212.692 405.709 213.619 404.836 215.473V223.128C405.763 224.982 407.208 225.909 409.171 225.909C410.621 225.909 411.75 225.347 412.557 224.224C413.364 223.101 413.767 221.411 413.767 219.153ZM423.909 228.15H420.883V203.025H423.909V228.15ZM436.112 228.477C433.712 228.477 431.76 227.692 430.256 226.122C428.751 224.54 427.998 222.43 427.998 219.791V219.235C427.998 217.48 428.331 215.915 428.996 214.541C429.672 213.156 430.61 212.076 431.81 211.302C433.02 210.517 434.329 210.124 435.735 210.124C438.036 210.124 439.825 210.882 441.101 212.398C442.376 213.914 443.014 216.084 443.014 218.908V220.168H431.024C431.068 221.912 431.575 223.325 432.546 224.404C433.527 225.473 434.77 226.007 436.275 226.007C437.344 226.007 438.249 225.789 438.99 225.353C439.732 224.917 440.381 224.339 440.937 223.619L442.785 225.058C441.302 227.338 439.078 228.477 436.112 228.477ZM435.735 212.61C434.514 212.61 433.489 213.058 432.66 213.952C431.831 214.835 431.319 216.078 431.123 217.681H439.988V217.452C439.901 215.915 439.487 214.726 438.745 213.886C438.004 213.036 437 212.61 435.735 212.61ZM447.006 228.15V204.334H453.729C455.8 204.334 457.632 204.792 459.225 205.708C460.817 206.624 462.044 207.927 462.905 209.617C463.777 211.307 464.219 213.248 464.23 215.44V216.962C464.23 219.208 463.794 221.176 462.921 222.867C462.06 224.557 460.822 225.855 459.208 226.76C457.605 227.665 455.735 228.128 453.598 228.15H447.006ZM450.146 206.918V225.582H453.45C455.871 225.582 457.752 224.829 459.094 223.325C460.446 221.82 461.122 219.677 461.122 216.896V215.506C461.122 212.801 460.484 210.702 459.208 209.208C457.943 207.703 456.144 206.94 453.81 206.918H450.146ZM475.86 228.477C473.461 228.477 471.509 227.692 470.004 226.122C468.499 224.54 467.747 222.43 467.747 219.791V219.235C467.747 217.48 468.079 215.915 468.745 214.541C469.421 213.156 470.359 212.076 471.558 211.302C472.769 210.517 474.077 210.124 475.484 210.124C477.785 210.124 479.573 210.882 480.849 212.398C482.125 213.914 482.763 216.084 482.763 218.908V220.168H470.773C470.817 221.912 471.324 223.325 472.294 224.404C473.276 225.473 474.519 226.007 476.024 226.007C477.092 226.007 477.997 225.789 478.739 225.353C479.481 224.917 480.129 224.339 480.686 223.619L482.534 225.058C481.051 227.338 478.826 228.477 475.86 228.477ZM475.484 212.61C474.263 212.61 473.237 213.058 472.409 213.952C471.58 214.835 471.067 216.078 470.871 217.681H479.737V217.452C479.65 215.915 479.235 214.726 478.494 213.886C477.752 213.036 476.749 212.61 475.484 212.61ZM493.379 226.007C494.458 226.007 495.402 225.68 496.209 225.026C497.016 224.371 497.463 223.554 497.55 222.572H500.413C500.358 223.586 500.009 224.551 499.366 225.467C498.722 226.383 497.861 227.114 496.781 227.659C495.713 228.205 494.578 228.477 493.379 228.477C490.969 228.477 489.05 227.676 487.621 226.073C486.203 224.459 485.495 222.256 485.495 219.464V218.957C485.495 217.234 485.811 215.702 486.443 214.361C487.076 213.019 487.981 211.978 489.159 211.236C490.347 210.495 491.749 210.124 493.363 210.124C495.347 210.124 496.994 210.718 498.302 211.907C499.622 213.096 500.325 214.639 500.413 216.536H497.55C497.463 215.391 497.027 214.453 496.241 213.723C495.467 212.981 494.508 212.61 493.363 212.61C491.825 212.61 490.631 213.167 489.78 214.279C488.941 215.38 488.521 216.978 488.521 219.072V219.644C488.521 221.683 488.941 223.254 489.78 224.355C490.62 225.456 491.819 226.007 493.379 226.007ZM507.103 228.15H504.077V203.025H507.103V228.15ZM522.888 228.15C522.713 227.801 522.571 227.179 522.462 226.285C521.056 227.747 519.376 228.477 517.424 228.477C515.68 228.477 514.246 227.986 513.122 227.005C512.01 226.013 511.454 224.759 511.454 223.243C511.454 221.4 512.152 219.971 513.548 218.957C514.954 217.932 516.928 217.42 519.469 217.42H522.413V216.029C522.413 214.971 522.097 214.132 521.465 213.51C520.832 212.878 519.9 212.561 518.667 212.561C517.588 212.561 516.683 212.834 515.952 213.379C515.222 213.924 514.856 214.584 514.856 215.358H511.814C511.814 214.475 512.125 213.625 512.746 212.807C513.379 211.978 514.229 211.324 515.298 210.844C516.377 210.364 517.561 210.124 518.847 210.124C520.887 210.124 522.484 210.637 523.64 211.662C524.796 212.676 525.396 214.077 525.439 215.866V224.012C525.439 225.636 525.647 226.929 526.061 227.888V228.15H522.888ZM517.866 225.844C518.815 225.844 519.714 225.598 520.565 225.108C521.416 224.617 522.032 223.979 522.413 223.194V219.562H520.041C516.334 219.562 514.48 220.647 514.48 222.817C514.48 223.766 514.796 224.508 515.429 225.042C516.061 225.576 516.874 225.844 517.866 225.844ZM538.738 213.167C538.28 213.09 537.784 213.052 537.25 213.052C535.265 213.052 533.918 213.897 533.209 215.587V228.15H530.183V210.451H533.127L533.177 212.496C534.169 210.915 535.576 210.124 537.397 210.124C537.986 210.124 538.433 210.2 538.738 210.353V213.167ZM551.808 228.15C551.633 227.801 551.491 227.179 551.382 226.285C549.976 227.747 548.296 228.477 546.344 228.477C544.599 228.477 543.165 227.986 542.042 227.005C540.93 226.013 540.374 224.759 540.374 223.243C540.374 221.4 541.072 219.971 542.468 218.957C543.874 217.932 545.848 217.42 548.389 217.42H551.333V216.029C551.333 214.971 551.017 214.132 550.385 213.51C549.752 212.878 548.82 212.561 547.587 212.561C546.508 212.561 545.603 212.834 544.872 213.379C544.141 213.924 543.776 214.584 543.776 215.358H540.734C540.734 214.475 541.044 213.625 541.666 212.807C542.298 211.978 543.149 211.324 544.218 210.844C545.297 210.364 546.481 210.124 547.767 210.124C549.807 210.124 551.404 210.637 552.56 211.662C553.716 212.676 554.316 214.077 554.359 215.866V224.012C554.359 225.636 554.567 226.929 554.981 227.888V228.15H551.808ZM546.786 225.844C547.735 225.844 548.634 225.598 549.485 225.108C550.335 224.617 550.952 223.979 551.333 223.194V219.562H548.961C545.254 219.562 543.4 220.647 543.4 222.817C543.4 223.766 543.716 224.508 544.349 225.042C544.981 225.576 545.794 225.844 546.786 225.844ZM563.209 206.166V210.451H566.513V212.79H563.209V223.766C563.209 224.475 563.356 225.009 563.65 225.369C563.945 225.718 564.446 225.893 565.155 225.893C565.504 225.893 565.984 225.827 566.595 225.696V228.15C565.799 228.368 565.024 228.477 564.272 228.477C562.92 228.477 561.9 228.068 561.213 227.25C560.526 226.432 560.183 225.271 560.183 223.766V212.79H556.96V210.451H560.183V206.166H563.209ZM573.35 228.15H570.324V210.451H573.35V228.15ZM570.079 205.757C570.079 205.266 570.226 204.852 570.521 204.514C570.826 204.175 571.273 204.006 571.862 204.006C572.451 204.006 572.898 204.175 573.203 204.514C573.508 204.852 573.661 205.266 573.661 205.757C573.661 206.247 573.508 206.656 573.203 206.983C572.898 207.311 572.451 207.474 571.862 207.474C571.273 207.474 570.826 207.311 570.521 206.983C570.226 206.656 570.079 206.247 570.079 205.757ZM577.407 219.137C577.407 217.403 577.745 215.844 578.421 214.459C579.108 213.074 580.057 212.005 581.267 211.253C582.489 210.5 583.879 210.124 585.438 210.124C587.848 210.124 589.795 210.958 591.278 212.627C592.772 214.295 593.519 216.514 593.519 219.284V219.497C593.519 221.22 593.186 222.768 592.521 224.142C591.867 225.506 590.924 226.569 589.691 227.332C588.47 228.095 587.063 228.477 585.471 228.477C583.072 228.477 581.126 227.643 579.632 225.974C578.149 224.306 577.407 222.098 577.407 219.35V219.137ZM580.449 219.497C580.449 221.46 580.902 223.036 581.807 224.224C582.723 225.413 583.944 226.007 585.471 226.007C587.009 226.007 588.23 225.407 589.135 224.208C590.04 222.997 590.493 221.307 590.493 219.137C590.493 217.196 590.029 215.626 589.103 214.426C588.187 213.216 586.965 212.61 585.438 212.61C583.944 212.61 582.739 213.205 581.823 214.393C580.907 215.582 580.449 217.283 580.449 219.497ZM600.177 210.451L600.275 212.676C601.627 210.975 603.393 210.124 605.574 210.124C609.315 210.124 611.201 212.234 611.234 216.454V228.15H608.208V216.438C608.197 215.162 607.903 214.219 607.325 213.608C606.758 212.998 605.869 212.692 604.658 212.692C603.677 212.692 602.816 212.954 602.074 213.477C601.332 214.001 600.754 214.688 600.34 215.538V228.15H597.314V210.451H600.177Z"
    fill="white"
  />
  <path
    d="M921.25 335H552.75C543.499 335 536 342.499 536 351.75V418.75C536 428.001 543.499 435.5 552.75 435.5H921.25C930.501 435.5 938 428.001 938 418.75V351.75C938 342.499 930.501 335 921.25 335Z"
    fill="#414141"
  />
  <path
    d="M608.649 390.979L615.453 371.334H618.888L610.055 395.15H607.275L598.458 371.334H601.877L608.649 390.979ZM631.794 395.15C631.62 394.801 631.478 394.179 631.369 393.285C629.962 394.747 628.283 395.477 626.331 395.477C624.586 395.477 623.152 394.986 622.029 394.005C620.917 393.013 620.361 391.759 620.361 390.243C620.361 388.4 621.059 386.971 622.454 385.957C623.861 384.932 625.835 384.42 628.376 384.42H631.32V383.029C631.32 381.971 631.004 381.132 630.371 380.51C629.739 379.878 628.806 379.561 627.574 379.561C626.495 379.561 625.59 379.834 624.859 380.379C624.128 380.924 623.763 381.584 623.763 382.358H620.72C620.72 381.475 621.031 380.625 621.653 379.807C622.285 378.978 623.136 378.324 624.205 377.844C625.284 377.364 626.467 377.124 627.754 377.124C629.793 377.124 631.391 377.637 632.547 378.662C633.703 379.676 634.303 381.077 634.346 382.866V391.012C634.346 392.636 634.553 393.929 634.968 394.888V395.15H631.794ZM626.773 392.844C627.721 392.844 628.621 392.598 629.472 392.108C630.322 391.617 630.938 390.979 631.32 390.194V386.562H628.948C625.241 386.562 623.387 387.647 623.387 389.817C623.387 390.766 623.703 391.508 624.335 392.042C624.968 392.576 625.78 392.844 626.773 392.844ZM647.645 380.167C647.187 380.09 646.691 380.052 646.156 380.052C644.172 380.052 642.825 380.897 642.116 382.587V395.15H639.09V377.451H642.034L642.083 379.496C643.076 377.915 644.482 377.124 646.303 377.124C646.892 377.124 647.339 377.2 647.645 377.353V380.167ZM653.73 395.15H650.704V377.451H653.73V395.15ZM650.458 372.757C650.458 372.266 650.605 371.852 650.9 371.514C651.205 371.175 651.652 371.006 652.241 371.006C652.83 371.006 653.277 371.175 653.583 371.514C653.888 371.852 654.041 372.266 654.041 372.757C654.041 373.247 653.888 373.656 653.583 373.983C653.277 374.311 652.83 374.474 652.241 374.474C651.652 374.474 651.205 374.311 650.9 373.983C650.605 373.656 650.458 373.247 650.458 372.757ZM669.515 395.15C669.34 394.801 669.198 394.179 669.089 393.285C667.683 394.747 666.003 395.477 664.051 395.477C662.306 395.477 660.872 394.986 659.749 394.005C658.637 393.013 658.081 391.759 658.081 390.243C658.081 388.4 658.779 386.971 660.175 385.957C661.581 384.932 663.555 384.42 666.096 384.42H669.04V383.029C669.04 381.971 668.724 381.132 668.092 380.51C667.459 379.878 666.527 379.561 665.294 379.561C664.215 379.561 663.31 379.834 662.579 380.379C661.848 380.924 661.483 381.584 661.483 382.358H658.441C658.441 381.475 658.751 380.625 659.373 379.807C660.006 378.978 660.856 378.324 661.925 377.844C663.004 377.364 664.188 377.124 665.474 377.124C667.514 377.124 669.111 377.637 670.267 378.662C671.423 379.676 672.023 381.077 672.066 382.866V391.012C672.066 392.636 672.274 393.929 672.688 394.888V395.15H669.515ZM664.493 392.844C665.442 392.844 666.341 392.598 667.192 392.108C668.042 391.617 668.659 390.979 669.04 390.194V386.562H666.668C662.961 386.562 661.107 387.647 661.107 389.817C661.107 390.766 661.423 391.508 662.056 392.042C662.688 392.576 663.501 392.844 664.493 392.844ZM691.793 386.497C691.793 389.201 691.172 391.377 689.929 393.024C688.686 394.659 687.017 395.477 684.923 395.477C682.688 395.477 680.959 394.687 679.738 393.105L679.591 395.15H676.81V370.025H679.836V379.398C681.058 377.882 682.742 377.124 684.891 377.124C687.039 377.124 688.724 377.937 689.945 379.561C691.177 381.186 691.793 383.411 691.793 386.235V386.497ZM688.767 386.153C688.767 384.092 688.369 382.5 687.573 381.377C686.777 380.254 685.632 379.692 684.138 379.692C682.143 379.692 680.709 380.619 679.836 382.473V390.128C680.763 391.982 682.208 392.909 684.171 392.909C685.621 392.909 686.75 392.347 687.557 391.224C688.364 390.101 688.767 388.411 688.767 386.153ZM698.909 395.15H695.883V370.025H698.909V395.15ZM711.112 395.477C708.712 395.477 706.76 394.692 705.256 393.122C703.751 391.54 702.998 389.43 702.998 386.791V386.235C702.998 384.48 703.331 382.915 703.996 381.541C704.672 380.156 705.61 379.076 706.81 378.302C708.02 377.517 709.329 377.124 710.735 377.124C713.036 377.124 714.825 377.882 716.101 379.398C717.376 380.914 718.014 383.084 718.014 385.908V387.168H706.024C706.068 388.912 706.575 390.325 707.546 391.404C708.527 392.473 709.77 393.007 711.275 393.007C712.344 393.007 713.249 392.789 713.99 392.353C714.732 391.917 715.381 391.339 715.937 390.619L717.785 392.058C716.302 394.338 714.078 395.477 711.112 395.477ZM710.735 379.61C709.514 379.61 708.489 380.058 707.66 380.952C706.831 381.835 706.319 383.078 706.123 384.681H714.988V384.452C714.901 382.915 714.487 381.726 713.745 380.886C713.004 380.036 712 379.61 710.735 379.61ZM722.006 395.15V371.334H728.729C730.8 371.334 732.632 371.792 734.225 372.708C735.817 373.624 737.044 374.927 737.905 376.617C738.777 378.307 739.219 380.248 739.23 382.44V383.962C739.23 386.208 738.794 388.176 737.921 389.867C737.06 391.557 735.822 392.855 734.208 393.76C732.605 394.665 730.735 395.128 728.598 395.15H722.006ZM725.146 373.918V392.582H728.45C730.871 392.582 732.752 391.829 734.094 390.325C735.446 388.82 736.122 386.677 736.122 383.896V382.506C736.122 379.801 735.484 377.702 734.208 376.208C732.943 374.703 731.144 373.94 728.81 373.918H725.146ZM750.86 395.477C748.461 395.477 746.509 394.692 745.004 393.122C743.499 391.54 742.747 389.43 742.747 386.791V386.235C742.747 384.48 743.079 382.915 743.745 381.541C744.421 380.156 745.359 379.076 746.558 378.302C747.769 377.517 749.077 377.124 750.484 377.124C752.785 377.124 754.573 377.882 755.849 379.398C757.125 380.914 757.763 383.084 757.763 385.908V387.168H745.773C745.817 388.912 746.324 390.325 747.294 391.404C748.276 392.473 749.519 393.007 751.024 393.007C752.092 393.007 752.997 392.789 753.739 392.353C754.481 391.917 755.129 391.339 755.686 390.619L757.534 392.058C756.051 394.338 753.826 395.477 750.86 395.477ZM750.484 379.61C749.263 379.61 748.237 380.058 747.409 380.952C746.58 381.835 746.067 383.078 745.871 384.681H754.737V384.452C754.65 382.915 754.235 381.726 753.494 380.886C752.752 380.036 751.749 379.61 750.484 379.61ZM768.379 393.007C769.458 393.007 770.402 392.68 771.209 392.026C772.016 391.371 772.463 390.554 772.55 389.572H775.413C775.358 390.586 775.009 391.551 774.366 392.467C773.722 393.383 772.861 394.114 771.781 394.659C770.713 395.205 769.578 395.477 768.379 395.477C765.969 395.477 764.05 394.676 762.621 393.073C761.203 391.459 760.495 389.256 760.495 386.464V385.957C760.495 384.234 760.811 382.702 761.443 381.361C762.076 380.019 762.981 378.978 764.159 378.236C765.347 377.495 766.749 377.124 768.363 377.124C770.347 377.124 771.994 377.718 773.302 378.907C774.622 380.096 775.325 381.639 775.413 383.536H772.55C772.463 382.391 772.027 381.453 771.241 380.723C770.467 379.981 769.508 379.61 768.363 379.61C766.825 379.61 765.631 380.167 764.78 381.279C763.941 382.38 763.521 383.978 763.521 386.072V386.644C763.521 388.683 763.941 390.254 764.78 391.355C765.62 392.456 766.819 393.007 768.379 393.007ZM782.103 395.15H779.077V370.025H782.103V395.15ZM797.888 395.15C797.713 394.801 797.571 394.179 797.462 393.285C796.056 394.747 794.376 395.477 792.424 395.477C790.68 395.477 789.246 394.986 788.122 394.005C787.01 393.013 786.454 391.759 786.454 390.243C786.454 388.4 787.152 386.971 788.548 385.957C789.954 384.932 791.928 384.42 794.469 384.42H797.413V383.029C797.413 381.971 797.097 381.132 796.465 380.51C795.832 379.878 794.9 379.561 793.667 379.561C792.588 379.561 791.683 379.834 790.952 380.379C790.222 380.924 789.856 381.584 789.856 382.358H786.814C786.814 381.475 787.125 380.625 787.746 379.807C788.379 378.978 789.229 378.324 790.298 377.844C791.377 377.364 792.561 377.124 793.847 377.124C795.887 377.124 797.484 377.637 798.64 378.662C799.796 379.676 800.396 381.077 800.439 382.866V391.012C800.439 392.636 800.647 393.929 801.061 394.888V395.15H797.888ZM792.866 392.844C793.815 392.844 794.714 392.598 795.565 392.108C796.416 391.617 797.032 390.979 797.413 390.194V386.562H795.041C791.334 386.562 789.48 387.647 789.48 389.817C789.48 390.766 789.796 391.508 790.429 392.042C791.061 392.576 791.874 392.844 792.866 392.844ZM813.738 380.167C813.28 380.09 812.784 380.052 812.25 380.052C810.265 380.052 808.918 380.897 808.209 382.587V395.15H805.183V377.451H808.127L808.177 379.496C809.169 377.915 810.576 377.124 812.397 377.124C812.986 377.124 813.433 377.2 813.738 377.353V380.167ZM826.808 395.15C826.633 394.801 826.491 394.179 826.382 393.285C824.976 394.747 823.296 395.477 821.344 395.477C819.599 395.477 818.165 394.986 817.042 394.005C815.93 393.013 815.374 391.759 815.374 390.243C815.374 388.4 816.072 386.971 817.468 385.957C818.874 384.932 820.848 384.42 823.389 384.42H826.333V383.029C826.333 381.971 826.017 381.132 825.385 380.51C824.752 379.878 823.82 379.561 822.587 379.561C821.508 379.561 820.603 379.834 819.872 380.379C819.141 380.924 818.776 381.584 818.776 382.358H815.734C815.734 381.475 816.044 380.625 816.666 379.807C817.298 378.978 818.149 378.324 819.218 377.844C820.297 377.364 821.481 377.124 822.767 377.124C824.807 377.124 826.404 377.637 827.56 378.662C828.716 379.676 829.316 381.077 829.359 382.866V391.012C829.359 392.636 829.567 393.929 829.981 394.888V395.15H826.808ZM821.786 392.844C822.735 392.844 823.634 392.598 824.485 392.108C825.335 391.617 825.952 390.979 826.333 390.194V386.562H823.961C820.254 386.562 818.4 387.647 818.4 389.817C818.4 390.766 818.716 391.508 819.349 392.042C819.981 392.576 820.794 392.844 821.786 392.844ZM838.209 373.166V377.451H841.513V379.79H838.209V390.766C838.209 391.475 838.356 392.009 838.65 392.369C838.945 392.718 839.446 392.893 840.155 392.893C840.504 392.893 840.984 392.827 841.595 392.696V395.15C840.799 395.368 840.024 395.477 839.272 395.477C837.92 395.477 836.9 395.068 836.213 394.25C835.526 393.432 835.183 392.271 835.183 390.766V379.79H831.96V377.451H835.183V373.166H838.209ZM843.934 386.137C843.934 384.403 844.272 382.844 844.948 381.459C845.635 380.074 846.584 379.005 847.794 378.253C849.016 377.5 850.406 377.124 851.965 377.124C854.375 377.124 856.322 377.958 857.805 379.627C859.299 381.295 860.046 383.514 860.046 386.284V386.497C860.046 388.22 859.713 389.768 859.048 391.142C858.394 392.506 857.451 393.569 856.218 394.332C854.997 395.095 853.59 395.477 851.998 395.477C849.599 395.477 847.652 394.643 846.158 392.974C844.675 391.306 843.934 389.098 843.934 386.35V386.137ZM846.976 386.497C846.976 388.46 847.429 390.036 848.334 391.224C849.25 392.413 850.471 393.007 851.998 393.007C853.536 393.007 854.757 392.407 855.662 391.208C856.567 389.997 857.02 388.307 857.02 386.137C857.02 384.196 856.556 382.626 855.629 381.426C854.713 380.216 853.492 379.61 851.965 379.61C850.471 379.61 849.266 380.205 848.35 381.393C847.434 382.582 846.976 384.283 846.976 386.497ZM872.396 380.167C871.938 380.09 871.442 380.052 870.907 380.052C868.923 380.052 867.576 380.897 866.867 382.587V395.15H863.841V377.451H866.785L866.834 379.496C867.827 377.915 869.233 377.124 871.054 377.124C871.643 377.124 872.09 377.2 872.396 377.353V380.167Z"
    fill="white"
  />
  <path
    d="M1189.25 503H820.75C811.499 503 804 510.499 804 519.75V586.75C804 596.001 811.499 603.5 820.75 603.5H1189.25C1198.5 603.5 1206 596.001 1206 586.75V519.75C1206 510.499 1198.5 503 1189.25 503Z"
    fill="#FF5246"
  />
  <path
    d="M929.779 563.15V547.79H926.981V545.451H929.779V543.636C929.779 541.738 930.286 540.271 931.3 539.235C932.314 538.199 933.748 537.681 935.602 537.681C936.3 537.681 936.992 537.774 937.679 537.96L937.516 540.413C937.003 540.315 936.458 540.266 935.88 540.266C934.898 540.266 934.141 540.555 933.606 541.133C933.072 541.7 932.805 542.518 932.805 543.587V545.451H936.583V547.79H932.805V563.15H929.779ZM939.135 554.137C939.135 552.403 939.473 550.844 940.149 549.459C940.836 548.074 941.785 547.005 942.995 546.253C944.217 545.5 945.607 545.124 947.167 545.124C949.576 545.124 951.523 545.958 953.006 547.627C954.5 549.295 955.247 551.514 955.247 554.284V554.497C955.247 556.22 954.914 557.768 954.249 559.142C953.595 560.506 952.652 561.569 951.419 562.332C950.198 563.095 948.791 563.477 947.199 563.477C944.8 563.477 942.854 562.643 941.36 560.974C939.877 559.306 939.135 557.098 939.135 554.35V554.137ZM942.177 554.497C942.177 556.46 942.63 558.036 943.535 559.224C944.451 560.413 945.673 561.007 947.199 561.007C948.737 561.007 949.958 560.407 950.863 559.208C951.768 557.997 952.221 556.307 952.221 554.137C952.221 552.196 951.757 550.626 950.831 549.426C949.915 548.216 948.693 547.61 947.167 547.61C945.673 547.61 944.468 548.205 943.552 549.393C942.635 550.582 942.177 552.283 942.177 554.497ZM958.24 554.137C958.24 552.403 958.579 550.844 959.255 549.459C959.942 548.074 960.89 547.005 962.101 546.253C963.322 545.5 964.713 545.124 966.272 545.124C968.682 545.124 970.628 545.958 972.112 547.627C973.606 549.295 974.353 551.514 974.353 554.284V554.497C974.353 556.22 974.02 557.768 973.355 559.142C972.7 560.506 971.757 561.569 970.525 562.332C969.304 563.095 967.897 563.477 966.305 563.477C963.906 563.477 961.959 562.643 960.465 560.974C958.982 559.306 958.24 557.098 958.24 554.35V554.137ZM961.283 554.497C961.283 556.46 961.736 558.036 962.641 559.224C963.557 560.413 964.778 561.007 966.305 561.007C967.842 561.007 969.064 560.407 969.969 559.208C970.874 557.997 971.326 556.307 971.326 554.137C971.326 552.196 970.863 550.626 969.936 549.426C969.02 548.216 967.799 547.61 966.272 547.61C964.778 547.61 963.573 548.205 962.657 549.393C961.741 550.582 961.283 552.283 961.283 554.497ZM977.411 554.153C977.411 551.438 978.055 549.257 979.342 547.61C980.628 545.953 982.313 545.124 984.396 545.124C986.468 545.124 988.109 545.833 989.32 547.251V538.025H992.346V563.15H989.565L989.418 561.253C988.207 562.736 986.522 563.477 984.363 563.477C982.313 563.477 980.639 562.637 979.342 560.958C978.055 559.279 977.411 557.087 977.411 554.382V554.153ZM980.437 554.497C980.437 556.503 980.852 558.074 981.681 559.208C982.509 560.342 983.654 560.909 985.116 560.909C987.035 560.909 988.436 560.048 989.32 558.325V550.195C988.414 548.526 987.024 547.692 985.148 547.692C983.665 547.692 982.509 548.265 981.681 549.41C980.852 550.555 980.437 552.251 980.437 554.497ZM1007.36 558.455C1007.36 557.638 1007.05 557.005 1006.43 556.558C1005.82 556.1 1004.74 555.707 1003.21 555.38C1001.68 555.053 1000.46 554.66 999.559 554.202C998.665 553.744 998 553.199 997.564 552.567C997.138 551.934 996.926 551.182 996.926 550.309C996.926 548.859 997.536 547.632 998.758 546.629C999.99 545.626 1001.56 545.124 1003.47 545.124C1005.48 545.124 1007.1 545.642 1008.34 546.678C1009.6 547.714 1010.22 549.039 1010.22 550.653H1007.18C1007.18 549.824 1006.83 549.11 1006.12 548.51C1005.42 547.91 1004.54 547.61 1003.47 547.61C1002.37 547.61 1001.51 547.85 1000.88 548.33C1000.26 548.81 999.952 549.437 999.952 550.211C999.952 550.942 1000.24 551.493 1000.82 551.863C1001.4 552.234 1002.44 552.589 1003.94 552.927C1005.46 553.265 1006.69 553.668 1007.62 554.137C1008.56 554.606 1009.25 555.173 1009.7 555.838C1010.16 556.493 1010.39 557.294 1010.39 558.243C1010.39 559.824 1009.76 561.094 1008.49 562.054C1007.23 563.003 1005.58 563.477 1003.57 563.477C1002.15 563.477 1000.9 563.226 999.805 562.725C998.714 562.223 997.858 561.525 997.237 560.631C996.626 559.726 996.321 558.75 996.321 557.703H999.347C999.401 558.717 999.805 559.524 1000.56 560.124C1001.32 560.713 1002.32 561.007 1003.57 561.007C1004.71 561.007 1005.63 560.778 1006.31 560.32C1007.01 559.851 1007.36 559.23 1007.36 558.455ZM1018.17 563.15H1015.03V539.334H1018.17V563.15ZM1027.09 560.582H1038.38V563.15H1023.93V539.334H1027.09V560.582ZM1044.77 563.15H1041.75V545.451H1044.77V563.15ZM1041.5 540.757C1041.5 540.266 1041.65 539.852 1041.94 539.514C1042.25 539.175 1042.69 539.006 1043.28 539.006C1043.87 539.006 1044.32 539.175 1044.62 539.514C1044.93 539.852 1045.08 540.266 1045.08 540.757C1045.08 541.247 1044.93 541.656 1044.62 541.983C1044.32 542.311 1043.87 542.474 1043.28 542.474C1042.69 542.474 1042.25 542.311 1041.94 541.983C1041.65 541.656 1041.5 541.247 1041.5 540.757ZM1054.57 554.955L1052.67 556.934V563.15H1049.65V538.025H1052.67V553.221L1054.29 551.275L1059.8 545.451H1063.48L1056.6 552.845L1064.29 563.15H1060.74L1054.57 554.955ZM1073.63 563.477C1071.23 563.477 1069.27 562.692 1067.77 561.122C1066.26 559.54 1065.51 557.43 1065.51 554.791V554.235C1065.51 552.48 1065.85 550.915 1066.51 549.541C1067.19 548.156 1068.12 547.076 1069.32 546.302C1070.53 545.517 1071.84 545.124 1073.25 545.124C1075.55 545.124 1077.34 545.882 1078.61 547.398C1079.89 548.914 1080.53 551.084 1080.53 553.908V555.168H1068.54C1068.58 556.912 1069.09 558.325 1070.06 559.404C1071.04 560.473 1072.28 561.007 1073.79 561.007C1074.86 561.007 1075.76 560.789 1076.5 560.353C1077.25 559.917 1077.9 559.339 1078.45 558.619L1080.3 560.058C1078.82 562.338 1076.59 563.477 1073.63 563.477ZM1073.25 547.61C1072.03 547.61 1071 548.058 1070.17 548.952C1069.35 549.835 1068.83 551.078 1068.64 552.681H1077.5V552.452C1077.42 550.915 1077 549.726 1076.26 548.886C1075.52 548.036 1074.51 547.61 1073.25 547.61Z"
    fill="white"
  />
  <path
    d="M1189.25 670H820.75C811.499 670 804 677.499 804 686.75V753.75C804 763.001 811.499 770.5 820.75 770.5H1189.25C1198.5 770.5 1206 763.001 1206 753.75V686.75C1206 677.499 1198.5 670 1189.25 670Z"
    fill="#232323"
  />
  <path
    d="M898.916 723.934H888.938L886.697 730.15H883.458L892.553 706.334H895.301L904.412 730.15H901.189L898.916 723.934ZM889.886 721.35H897.983L893.927 710.21L889.886 721.35ZM915.698 715.167C915.24 715.09 914.744 715.052 914.21 715.052C912.225 715.052 910.878 715.897 910.17 717.587V730.15H907.144V712.451H910.088L910.137 714.496C911.129 712.915 912.536 712.124 914.357 712.124C914.946 712.124 915.393 712.2 915.698 712.353V715.167ZM927.051 715.167C926.593 715.09 926.096 715.052 925.562 715.052C923.577 715.052 922.231 715.897 921.522 717.587V730.15H918.496V712.451H921.44L921.489 714.496C922.481 712.915 923.888 712.124 925.709 712.124C926.298 712.124 926.745 712.2 927.051 712.353V715.167ZM940.12 730.15C939.946 729.801 939.804 729.179 939.695 728.285C938.288 729.747 936.609 730.477 934.657 730.477C932.912 730.477 931.478 729.986 930.355 729.005C929.242 728.013 928.686 726.759 928.686 725.243C928.686 723.4 929.384 721.971 930.78 720.957C932.187 719.932 934.161 719.42 936.701 719.42H939.646V718.029C939.646 716.971 939.33 716.132 938.697 715.51C938.065 714.878 937.132 714.561 935.9 714.561C934.82 714.561 933.915 714.834 933.185 715.379C932.454 715.924 932.089 716.584 932.089 717.358H929.046C929.046 716.475 929.357 715.625 929.979 714.807C930.611 713.978 931.462 713.324 932.53 712.844C933.61 712.364 934.793 712.124 936.08 712.124C938.119 712.124 939.717 712.637 940.873 713.662C942.028 714.676 942.628 716.077 942.672 717.866V726.012C942.672 727.636 942.879 728.929 943.293 729.888V730.15H940.12ZM935.098 727.844C936.047 727.844 936.947 727.598 937.797 727.108C938.648 726.617 939.264 725.979 939.646 725.194V721.562H937.274C933.566 721.562 931.712 722.647 931.712 724.817C931.712 725.766 932.029 726.508 932.661 727.042C933.294 727.576 934.106 727.844 935.098 727.844ZM952.944 725.717L957.066 712.451H960.305L953.19 732.882C952.088 735.826 950.338 737.298 947.939 737.298L947.366 737.249L946.238 737.036V734.583L947.056 734.648C948.081 734.648 948.877 734.441 949.444 734.027C950.022 733.612 950.496 732.854 950.867 731.753L951.538 729.954L945.224 712.451H948.528L952.944 725.717ZM976.957 719.141H966.635V727.582H978.625V730.15H963.495V706.334H978.462V708.918H966.635V716.573H976.957V719.141ZM987.998 718.912L991.924 712.451H995.457L989.667 721.202L995.637 730.15H992.137L988.047 723.525L983.958 730.15H980.441L986.412 721.202L980.621 712.451H984.122L987.998 718.912ZM1013.63 721.497C1013.63 724.19 1013.01 726.361 1011.78 728.007C1010.55 729.654 1008.88 730.477 1006.78 730.477C1004.63 730.477 1002.94 729.796 1001.71 728.432V736.955H998.68V712.451H1001.44L1001.59 714.414C1002.82 712.887 1004.54 712.124 1006.73 712.124C1008.85 712.124 1010.53 712.926 1011.77 714.529C1013.01 716.132 1013.63 718.362 1013.63 721.219V721.497ZM1010.6 721.153C1010.6 719.158 1010.18 717.582 1009.33 716.426C1008.48 715.27 1007.31 714.692 1005.83 714.692C1004 714.692 1002.62 715.505 1001.71 717.129V725.586C1002.61 727.2 1004 728.007 1005.86 728.007C1007.31 728.007 1008.46 727.435 1009.31 726.29C1010.17 725.134 1010.6 723.422 1010.6 721.153ZM1026.05 715.167C1025.59 715.09 1025.09 715.052 1024.56 715.052C1022.57 715.052 1021.23 715.897 1020.52 717.587V730.15H1017.49V712.451H1020.44L1020.48 714.496C1021.48 712.915 1022.88 712.124 1024.7 712.124C1025.29 712.124 1025.74 712.2 1026.05 712.353V715.167ZM1035.86 730.477C1033.46 730.477 1031.51 729.692 1030 728.122C1028.5 726.54 1027.75 724.43 1027.75 721.791V721.235C1027.75 719.48 1028.08 717.915 1028.74 716.541C1029.42 715.156 1030.36 714.076 1031.56 713.302C1032.77 712.517 1034.08 712.124 1035.48 712.124C1037.78 712.124 1039.57 712.882 1040.85 714.398C1042.12 715.914 1042.76 718.084 1042.76 720.908V722.168H1030.77C1030.82 723.912 1031.32 725.325 1032.29 726.404C1033.28 727.473 1034.52 728.007 1036.02 728.007C1037.09 728.007 1038 727.789 1038.74 727.353C1039.48 726.917 1040.13 726.339 1040.69 725.619L1042.53 727.058C1041.05 729.338 1038.83 730.477 1035.86 730.477ZM1035.48 714.61C1034.26 714.61 1033.24 715.058 1032.41 715.952C1031.58 716.835 1031.07 718.078 1030.87 719.681H1039.74V719.452C1039.65 717.915 1039.24 716.726 1038.49 715.886C1037.75 715.036 1036.75 714.61 1035.48 714.61ZM1056.58 725.455C1056.58 724.638 1056.27 724.005 1055.65 723.558C1055.04 723.1 1053.97 722.707 1052.43 722.38C1050.9 722.053 1049.69 721.66 1048.78 721.202C1047.89 720.744 1047.22 720.199 1046.79 719.567C1046.36 718.934 1046.15 718.182 1046.15 717.309C1046.15 715.859 1046.76 714.632 1047.98 713.629C1049.21 712.626 1050.78 712.124 1052.69 712.124C1054.7 712.124 1056.32 712.642 1057.57 713.678C1058.82 714.714 1059.45 716.039 1059.45 717.653H1056.41C1056.41 716.824 1056.05 716.11 1055.34 715.51C1054.64 714.91 1053.76 714.61 1052.69 714.61C1051.59 714.61 1050.73 714.85 1050.11 715.33C1049.49 715.81 1049.18 716.437 1049.18 717.211C1049.18 717.942 1049.46 718.493 1050.04 718.863C1050.62 719.234 1051.66 719.589 1053.17 719.927C1054.68 720.265 1055.91 720.668 1056.85 721.137C1057.78 721.606 1058.48 722.173 1058.92 722.838C1059.38 723.493 1059.61 724.294 1059.61 725.243C1059.61 726.824 1058.98 728.094 1057.71 729.054C1056.45 730.003 1054.81 730.477 1052.79 730.477C1051.37 730.477 1050.12 730.226 1049.03 729.725C1047.94 729.223 1047.08 728.525 1046.46 727.631C1045.85 726.726 1045.54 725.75 1045.54 724.703H1048.57C1048.62 725.717 1049.03 726.524 1049.78 727.124C1050.54 727.713 1051.55 728.007 1052.79 728.007C1053.94 728.007 1054.85 727.778 1055.54 727.32C1056.24 726.851 1056.58 726.23 1056.58 725.455ZM1073.86 725.455C1073.86 724.638 1073.55 724.005 1072.93 723.558C1072.32 723.1 1071.24 722.707 1069.7 722.38C1068.18 722.053 1066.96 721.66 1066.06 721.202C1065.16 720.744 1064.5 720.199 1064.06 719.567C1063.64 718.934 1063.42 718.182 1063.42 717.309C1063.42 715.859 1064.03 714.632 1065.25 713.629C1066.49 712.626 1068.06 712.124 1069.97 712.124C1071.97 712.124 1073.6 712.642 1074.84 713.678C1076.09 714.714 1076.72 716.039 1076.72 717.653H1073.68C1073.68 716.824 1073.32 716.11 1072.62 715.51C1071.92 714.91 1071.03 714.61 1069.97 714.61C1068.86 714.61 1068 714.85 1067.38 715.33C1066.76 715.81 1066.45 716.437 1066.45 717.211C1066.45 717.942 1066.74 718.493 1067.32 718.863C1067.89 719.234 1068.93 719.589 1070.44 719.927C1071.96 720.265 1073.18 720.668 1074.12 721.137C1075.06 721.606 1075.75 722.173 1076.2 722.838C1076.66 723.493 1076.88 724.294 1076.88 725.243C1076.88 726.824 1076.25 728.094 1074.99 729.054C1073.72 730.003 1072.08 730.477 1070.06 730.477C1068.65 730.477 1067.39 730.226 1066.3 729.725C1065.21 729.223 1064.35 728.525 1063.73 727.631C1063.12 726.726 1062.82 725.75 1062.82 724.703H1065.84C1065.9 725.717 1066.3 726.524 1067.05 727.124C1067.82 727.713 1068.82 728.007 1070.06 728.007C1071.21 728.007 1072.12 727.778 1072.81 727.32C1073.51 726.851 1073.86 726.23 1073.86 725.455ZM1084.11 730.15H1081.09V712.451H1084.11V730.15ZM1080.84 707.757C1080.84 707.266 1080.99 706.852 1081.28 706.514C1081.59 706.175 1082.04 706.006 1082.63 706.006C1083.21 706.006 1083.66 706.175 1083.97 706.514C1084.27 706.852 1084.43 707.266 1084.43 707.757C1084.43 708.247 1084.27 708.656 1083.97 708.983C1083.66 709.311 1083.21 709.474 1082.63 709.474C1082.04 709.474 1081.59 709.311 1081.28 708.983C1080.99 708.656 1080.84 708.247 1080.84 707.757ZM1088.17 721.137C1088.17 719.403 1088.51 717.844 1089.19 716.459C1089.87 715.074 1090.82 714.005 1092.03 713.253C1093.25 712.5 1094.64 712.124 1096.2 712.124C1098.61 712.124 1100.56 712.958 1102.04 714.627C1103.54 716.295 1104.28 718.514 1104.28 721.284V721.497C1104.28 723.22 1103.95 724.768 1103.29 726.142C1102.63 727.506 1101.69 728.569 1100.46 729.332C1099.23 730.095 1097.83 730.477 1096.24 730.477C1093.84 730.477 1091.89 729.643 1090.4 727.974C1088.91 726.306 1088.17 724.098 1088.17 721.35V721.137ZM1091.21 721.497C1091.21 723.46 1091.67 725.036 1092.57 726.224C1093.49 727.413 1094.71 728.007 1096.24 728.007C1097.77 728.007 1098.99 727.407 1099.9 726.208C1100.8 724.997 1101.26 723.307 1101.26 721.137C1101.26 719.196 1100.79 717.626 1099.87 716.426C1098.95 715.216 1097.73 714.61 1096.2 714.61C1094.71 714.61 1093.5 715.205 1092.59 716.393C1091.67 717.582 1091.21 719.283 1091.21 721.497ZM1110.94 712.451L1111.04 714.676C1112.39 712.975 1114.16 712.124 1116.34 712.124C1120.08 712.124 1121.97 714.234 1122 718.454V730.15H1118.97V718.438C1118.96 717.162 1118.67 716.219 1118.09 715.608C1117.52 714.998 1116.63 714.692 1115.42 714.692C1114.44 714.692 1113.58 714.954 1112.84 715.477C1112.1 716.001 1111.52 716.688 1111.1 717.538V730.15H1108.08V712.451H1110.94Z"
    fill="white"
  />
  <path d="M201 100.5V217.75H268" stroke="#666666" />
  <path d="M469 268V385.25H536" stroke="#666666" />
  <path d="M737 435.5V552.75H804" stroke="#666666" />
  <path d="M737 435.5V720.25H804" stroke="#666666" />
</svg>
